PathFileType	4	(X/Y/Z)	F:\biomechanics\vid_Sports2D\vid_Sports2D_m_person00.trc
DataRate	CameraRate	NumFrames	NumMarkers	Units	OrigDataRate	OrigDataStartFrame	OrigNumFrames
250.0	250.0	11	22	m	250.0	0	769
Frame#	Time	Hip			RHip			RKnee			RAnkle			RBigToe			RSmallToe			RHeel			LHip			LKnee			LAnkle			LBigToe			LSmallToe			LHeel			Neck			Head			Nose			RShoulder			RElbow			RWrist			LShoulder			LElbow			LWrist			
		X1	Y1	Z1	X2	Y2	Z2	X3	Y3	Z3	X4	Y4	Z4	X5	Y5	Z5	X6	Y6	Z6	X7	Y7	Z7	X8	Y8	Z8	X9	Y9	Z9	X10	Y10	Z10	X11	Y11	Z11	X12	Y12	Z12	X13	Y13	Z13	X14	Y14	Z14	X15	Y15	Z15	X16	Y16	Z16	X17	Y17	Z17	X18	Y18	Z18	X19	Y19	Z19	X20	Y20	Z20	X21	Y21	Z21	X22	Y22	Z22
39	0.1561933085501859	0.4097830727817208	0.7681921287960899	0.0	0.34166556174457513	0.7852189768961084	0.105	0.24518578858063844	0.37086157400155884	0.0886	-0.004308834933845395	0.2694892381814026	0.0972	-0.0014939449140749942	0.051454359234328534	0.0766	0.007406508785094091	0.07076691176527507	0.12	-0.00912874343334933	0.31906563452837833	0.0883	0.46829969071964767	0.7573161894578456	-0.105	0.6062075577961061	0.4377818531889548	-0.0886	0.5291424622525981	0.05368657003048938	-0.0972	0.6949678021061831	-0.028285353604666073	-0.0766	0.6811045805909582	-0.010558031650239648	-0.12	0.4766157606078602	0.00046145876464589834	-0.0883	0.5510924846011698	1.2550210422836177	0.0	0.6518017852116651	1.507366237785344	0.0	0.6931987035644449	1.3552638816930032	0.0	0.46562812852421476	1.1988643416100224	0.2016	0.3135780535780342	0.9947730796735577	0.1613	0.5241891990069658	0.8962026516869722	0.12	0.6055456021875297	1.1774472957714066	-0.2016	0.5576889991956197	0.9813083427290781	-0.1613	0.6361970545551194	0.8880325261971371	-0.12
40	0.16019826517967783	0.4133071596981308	0.7680423747689515	0.0	0.3450178302934523	0.784810821275897	0.105	0.25299077840954365	0.36980663638005873	0.0886	-0.0031255506030326103	0.26753318824875644	0.0972	-0.000512961916063646	0.054050975879113325	0.0766	0.007033310463907868	0.07697866314566473	0.12	-0.010088056288647854	0.3157311845332173	0.0883	0.47157071797902456	0.75705859623238	-0.105	0.6093877210903442	0.43712503149976645	-0.0886	0.5294519240551747	0.053633776203786954	-0.0972	0.6948679722470443	-0.027760504641555453	-0.0766	0.6811432690985716	-0.010382533919966951	-0.12	0.4767886172733017	0.00026027814238792373	-0.0883	0.554706915701664	1.255294418180528	0.0	0.6550547135763601	1.5079213851682405	0.0	0.6965975385473564	1.3557214119217225	0.0	0.46892623510986137	1.1989715028166348	0.2016	0.3171310999268514	0.9947717439605804	0.1613	0.52707309611733	0.895557876314974	0.12	0.6091512430193055	1.177405769409704	-0.2016	0.5643086583997906	0.9806930145680572	-0.1613	0.6417795451786791	0.8878974843483325	-0.12
41	0.1642032218091698	0.4167895518994617	0.7679118270189204	0.0	0.3483269502984263	0.7843781130988736	0.105	0.2608146963197751	0.3687732509338311	0.0886	-0.0017894952808444635	0.26558432273681326	0.0972	0.0005877936115852772	0.056741195107867626	0.0766	0.006734231364725377	0.08296437001142185	0.12	-0.0109722732944422	0.3121384969523658	0.0883	0.4748075095533027	0.7567886970890471	-0.105	0.6125240681087611	0.4364590777573536	-0.0886	0.5297717812612027	0.053606579825457835	-0.0972	0.6948173450555855	-0.027256626046573574	-0.0766	0.6812513660985565	-0.010221293166456983	-0.12	0.4769738142803051	8.880020679604507e-05	-0.0883	0.5583086385734422	1.2555894408102168	0.0	0.6582454337084351	1.508491721949174	0.0	0.6999881166339756	1.3561910701538173	0.0	0.47222206732523003	1.1990855362474044	0.2016	0.32066320788829933	0.9947713773901611	0.1613	0.5299664445820474	0.89495131885037	0.12	0.6127683637935571	1.1773764716586252	-0.2016	0.5708392498831975	0.980096873090696	-0.1613	0.6473427853483444	0.8877725854176615	-0.12
42	0.16820817843866173	0.42022565289750013	0.7678028763906958	0.0	0.35158837894106887	0.7839262400760645	0.105	0.2686496078187616	0.3677606653060968	0.0886	-0.0002875471312352043	0.263656755910598	0.0972	0.001818014286242045	0.05947255476841125	0.0766	0.0065212255745825355	0.08865870265045457	0.12	-0.011738611788009752	0.3083432811086595	0.0883	0.47800917006371135	0.7565133974037377	-0.105	0.6156132971058775	0.435782899432108	-0.0886	0.5301012757354994	0.053601876174283476	-0.0972	0.6948173788463252	-0.02678116789463063	-0.0766	0.6814303162478585	-0.010074848061099855	-0.12	0.47717374377001687	-5.155959250814171e-05	-0.0883	0.56189515279024	1.25590382171129	0.0	0.6613763215572703	1.5090733892496158	0.0	0.7033729517437297	1.3566723886694276	0.0	0.4755130773099816	1.1992059853884507	0.2016	0.32416896712199406	0.9947738029821238	0.1613	0.5328693055020095	0.8943816206550694	0.12	0.6163930626348588	1.1773573326889875	-0.2016	0.5772831170521449	0.979517304638455	-0.1613	0.6528775817452308	0.8876557542720644	-0.12
43	0.17221313506815367	0.4236103582338535	0.7677179941246894	0.0	0.3547965006998138	0.7834614693269184	0.105	0.2764881366398717	0.3667693336347551	0.0886	0.001393989069585511	0.26176376412250896	0.0972	0.0031874813105689436	0.06219396320618716	0.0766	0.006405409243552858	0.0940061262669428	0.12	-0.012348017503399457	0.3043983856318541	0.0883	0.48117420687845214	0.7562407702685586	-0.105	0.6186518188007941	0.43509524568431085	-0.0886	0.5304386922177304	0.05361528573633706	-0.0972	0.6948675732534396	-0.026339727647542582	-0.0766	0.6816792834818676	-0.009943181725437697	-0.12	0.4773904895747845	-0.00015998941794460604	-0.0883	0.5654647557421141	1.2562351441218962	0.0	0.6644498346636147	1.5096623348349874	0.0	0.7067540275195473	1.3571655469144137	0.0	0.4787969261394189	1.1993323999924477	0.2016	0.32764327925158704	0.9947814421020884	0.1613	0.5357809111260885	0.8938476467244867	0.12	0.6200217300595865	1.1773460478386988	-0.2016	0.583645850554778	0.9789508780313473	-0.1613	0.6583759406257228	0.8875453832055975	-0.12
44	0.17621809169764563	0.426937762384328	0.7676597869149625	0.0	0.35794444324258484	0.7829913089460037	0.105	0.28432332609572913	0.3658011410282185	0.0886	0.003268049616046159	0.25991664009841653	0.0972	0.004705752448466554	0.06485710011814962	0.0766	0.006396913130241747	0.09895911575320285	0.12	-0.012766225589407166	0.3003540427108512	0.0883	0.4842998094915476	0.7559791401209668	-0.105	0.62163595183494	0.43439483536664397	-0.0886	0.5307816165236618	0.053641987490383285	-0.0972	0.6949654296512883	-0.02593650017204119	-0.0766	0.6819954552671375	-0.009826037196976048	-0.12	0.47762552758705407	-0.00023554503153171228	-0.0883	0.5690163139194012	1.256580799077578	0.0	0.6674691402421492	1.5102549854392615	0.0	0.7101325816546318	1.3576715296301411	0.0	0.48207151113465135	1.199463977283694	0.2016	0.33108182361301963	0.9947971460369667	0.1613	0.5386998598648676	0.8933483616404879	0.12	0.6236515725483113	1.1773403272358758	-0.2016	0.5899362842615115	0.9783933948455029	-0.1613	0.6638295541313384	0.8874401065336994	-0.12
45	0.18022304832713756	0.4302017660616535	0.767631099740191	0.0	0.3610252604035179	0.7825250313571832	0.105	0.2921486819857341	0.3648593353078018	0.0886	0.005346180675286734	0.25812385097076596	0.0972	0.006381641888770962	0.06741645593007575	0.0766	0.006504754516996843	0.10347612896946284	0.12	-0.012964201976658127	0.2962579153806485	0.0883	0.48738297765394056	0.755736601423584	-0.105	0.6245621745064996	0.43368070628697264	-0.0886	0.5311275899325384	0.053677520539544346	-0.0972	0.6951064784404148	-0.025574557290523593	-0.0766	0.6823742069078875	-0.009723056190166246	-0.12	0.47787961027193776	-0.0002771016935881402	-0.0883	0.5725489207176517	1.2569381594522597	0.0	0.6704378223516396	1.5108481276022592	0.0	0.7135088256336364	1.3581920831756802	0.0	0.4853352988840861	1.199599889316886	0.2016	0.3344807105527437	0.9948241661799738	0.1613	0.5416238153267927	0.8928827642126653	0.12	0.6272808166583873	1.177338096253409	-0.2016	0.5961633365358939	0.9778400126587706	-0.1613	0.669230042741061	0.8873381696049314	-0.12
46	0.18422800495662953	0.4333967220876848	0.7676348512752985	0.0	0.36403282012063615	0.7820733850680575	0.105	0.29995791873589805	0.36394808853696997	0.0886	0.007638619990317678	0.2563914815109375	0.0972	0.008222383348341323	0.06982939321707743	0.0766	0.006737010829847762	0.10752055389497281	0.12	-0.012917506651094087	0.29215517937022223	0.0883	0.4904217159212475	0.7555207880593703	-0.105	0.6274272752007847	0.43295227104681	-0.0886	0.5314744621233537	0.05371820990211564	-0.0972	0.6952848280607362	-0.025255921233486255	-0.0766	0.6828094598043255	-0.00963370382376745	-0.12	0.4781527832699075	-0.0002838712758988355	-0.0883	0.5760620474433642	1.2573047093813579	0.0	0.6733593363861353	1.511438512360721	0.0	0.7168821486652969	1.358729440217102	0.0	0.4885875454633734	1.1997397195693789	0.2016	0.33783618022511097	0.9948662401315178	0.1613	0.5445495256676524	0.8924497157465915	0.12	0.6309086321213886	1.17733744506043	-0.2016	0.6023336983705425	0.9772852662629328	-0.1613	0.6745702040575426	0.887237007914463	-0.12
47	0.18823296158612146	0.43651781511788856	0.7676734111271015	0.0	0.36696187452754603	0.781647057169875	0.105	0.3077447686123934	0.3630722970918584	0.0886	0.010153701033426124	0.2547238870168955	0.0972	0.010232903985136075	0.072056689065764	0.0766	0.007100995037577918	0.11106085481393636	0.12	-0.01260677874229215	0.28808853645527444	0.0883	0.4934149224738498	0.7553383822996347	-0.105	0.6302286234883074	0.43220918140217224	-0.0886	0.5318202180615131	0.05376100663945301	-0.0972	0.6954943400915287	-0.02498168220048424	-0.0766	0.6832942729168898	-0.009557224409091427	-0.12	0.47844443054601243	-0.0002558998985329323	-0.0883	0.5795560513232195	1.2576782161268154	0.0	0.676237385831071	1.5120231412600578	0.0	0.720251651851097	1.3592859337167045	0.0	0.4918282289540113	1.1998834534663316	0.2016	0.3411449212667369	0.9949273799923574	0.1613	0.5474733827210673	0.892047815697132	0.12	0.6345348567762195	1.1773364742802122	-0.2016	0.6084525721131309	0.9767233317046548	-0.1613	0.6798441256031501	0.8871327299734231	-0.12
48	0.19223791821561342	0.43956186403805536	0.7677479838932719	0.0	0.36980894425418986	0.781255292705803	0.105	0.315503541387129	0.362237656847091	0.0886	0.01289718017881825	0.25312345827478905	0.0972	0.012415613197426957	0.07406164586287094	0.0766	0.007603463116646126	0.11407134353654216	0.12	-0.012018138662969075	0.28409790687277275	0.0883	0.49636203337995083	0.7551946711860281	-0.105	0.6329645900119213	0.4314514607188016	-0.0886	0.5321628544754363	0.05380315559426104	-0.0972	0.6957296604539789	-0.02475231895941012	-0.0766	0.6838212663020105	-0.009492801593786215	-0.12	0.478753345773029	-0.0001943545497811121	-0.0883	0.5830324197565789	1.2580570303446839	0.0	0.67907655357998	1.512599544556755	0.0	0.7236165000077136	1.3598636168116534	0.0	0.4950579081471869	1.2000312388366687	0.2016	0.3444045301805187	0.9950114049152361	0.1613	0.5503918488194763	0.8916755616128043	0.12	0.6381594981348766	1.1773332153003022	-0.2016	0.6145239177973201	0.9761488746104566	-0.1613	0.6850462271295857	0.8870196594454678	-0.12
49	0.19624287484510536	0.4425280259866236	0.7678583986282992	0.0	0.37257364275926713	0.7809056063881075	0.105	0.32322974076523553	0.3614503468000452	0.0886	0.015871977318072418	0.25158980122611496	0.0972	0.01477015246196403	0.07580658384580921	0.0766	0.008250964328609429	0.11653271495995793	0.12	-0.011142632276091042	0.2802193578139007	0.0883	0.4992627887227806	0.7550935183931328	-0.105	0.6356347987406272	0.4306795973815028	-0.0886	0.5325006787225532	0.053842037852547535	-0.0972	0.6959864991078488	-0.0245679631522577	-0.0766	0.6843826347547198	-0.009439700542129267	-0.12	0.4790778394863178	-0.00010160140664290134	-0.0883	0.586493400012465	1.2584400743611546	0.0	0.6818821260914747	1.5131655868345495	0.0	0.7269758547531359	1.360463937223733	0.0	0.49827773498032935	1.2001833061560365	0.2016	0.3476135444284816	0.9951217780009497	0.1613	0.5533015422585794	0.8913316722774839	0.12	0.641782182849098	1.1773256924565696	-0.2016	0.6205485193288505	0.9755577994094201	-0.1613	0.6901705545646835	0.8868909107007577	-0.12
